<svg width="145" height="20" viewBox="0 0 145 20" fill="none" xmlns="http://www.w3.org/2000/svg">
<path d="M89.9062 18.4337H93.5678V19.0361L94.1103 19.5181L128.014 19.6386L138.457 18.5542L144.153 16.1446C145.032 14.1577 145.167 10.1232 144.831 6.86747C144.71 5.70098 144.56 4.6988 144.153 3.73494L138.864 1.68675L130.049 0.361446L127.201 0L93.5678 0.120482L93.4322 1.08434L89.9062 1.20482L89.635 0.240964L54.9171 0.361446L54.6459 0.722892V1.68675H51.2554V1.20482L50.9842 0.60241L18.0293 0.843373L6.09506 2.16867L0.53479 4.6988C-0.55014 9.3253 0.26355 14.5783 0.806015 16.6265L6.90875 18.9157L17.6225 20L50.9842 19.759L51.2554 19.5181V18.4337H54.6459V19.2771L54.9171 19.6386H89.4993L89.9062 19.1566V18.4337Z" fill="url(#paint0_linear_46_2)"/>
<path d="M4.3321 5.42168L4.60333 15.9036L0.806048 16.6265C0.263581 14.5783 -0.550119 9.3253 0.534815 4.69879L4.3321 5.42168Z" fill="#414141"/>
<path d="M7.31556 2.53013L4.33201 5.42169L0.534725 4.6988L6.09501 2.16868L18.0293 0.843381L50.9841 0.602417L51.2554 1.20483V1.68675L50.9841 1.20483L18.0293 1.56627L7.31556 2.53013Z" fill="#0083C5"/>
<path d="M50.9841 19.2771L51.2554 18.4337V19.5181L50.9841 19.759L17.6224 20L6.90871 18.9157L0.805958 16.6265L4.60324 15.9036L7.17994 18.3133L17.6224 19.3976L50.9841 19.2771Z" fill="#0083C5"/>
<path d="M54.917 19.2771L89.4993 19.0361L89.8354 18.5384L89.9061 18.4337V19.1566L89.4993 19.6385H54.917L54.6458 19.2771V18.4337L54.917 19.2771Z" fill="white"/>
<path d="M54.917 0.843376L54.6458 1.68675V0.722895L54.917 0.361449L89.6349 0.240967L89.9061 1.20482L89.4993 0.602413L54.917 0.843376Z" fill="white"/>
<path d="M93.7035 0.60241L93.4323 1.08434L93.5679 0.120482L127.201 0L130.049 0.361446H126.93L93.7035 0.60241Z" fill="#008910"/>
<path d="M137.643 2.28916L140.491 4.6988V15.1807L137.643 17.9518L127.879 18.9157H93.9747L93.5678 18.4337V19.0361L94.1103 19.5181L128.014 19.6386L138.457 18.5542L144.153 16.1446C145.032 14.1577 145.167 10.1232 144.831 6.86747C144.71 5.70099 144.56 4.6988 144.153 3.73494L138.864 1.68675L130.049 0.36145H126.93L137.643 2.28916Z" fill="#008910"/>
<path d="M140.491 15.1807V4.69878L144.153 3.73492C144.56 4.69878 144.71 5.70097 144.831 6.86745C145.167 10.1232 145.032 14.1577 144.153 16.1446L140.491 15.1807Z" fill="#414141"/>
<path d="M54.6458 18.4338V1.68677H53.6965H52.4759H51.2554V18.4338H52.4759H53.6965H54.6458Z" fill="#383838"/>
<path d="M93.5678 18.4337L93.4322 1.08435L92.4829 1.11679L91.1267 1.16313L89.9062 1.20483V18.4337H91.1267H92.6185H93.5678Z" fill="#383838"/>
<rect width="4.8822" height="3.13253" transform="matrix(-1 0 0 1 18.1649 8.5542)" fill="#A2A2A2"/>
<rect width="4.8822" height="3.13253" transform="matrix(-1 0 0 1 86.2446 8.5542)" fill="#A2A2A2"/>
<rect width="4.8822" height="3.13253" transform="matrix(-1 0 0 1 133.168 8.31323)" fill="#A2A2A2"/>
<line x1="27.6582" y1="4.42163" x2="44.7459" y2="4.42163" stroke="black" stroke-width="2"/>
<line x1="27.6582" y1="4.42163" x2="44.7459" y2="4.42163" stroke="black" stroke-width="2"/>
<line x1="27.6582" y1="4.42163" x2="44.7459" y2="4.42163" stroke="black" stroke-width="2"/>
<line x1="27.6582" y1="13.3373" x2="44.7459" y2="13.3373" stroke="black" stroke-width="2"/>
<line x1="27.6582" y1="13.3373" x2="44.7459" y2="13.3373" stroke="black" stroke-width="2"/>
<line x1="27.6582" y1="13.3373" x2="44.7459" y2="13.3373" stroke="black" stroke-width="2"/>
<line x1="28.0143" y1="14.0964" x2="28.0143" y2="5.18071" stroke="black" stroke-width="2"/>
<line x1="28.0143" y1="14.0964" x2="28.0143" y2="5.18071" stroke="black" stroke-width="2"/>
<line x1="28.0143" y1="14.0964" x2="28.0143" y2="5.18071" stroke="black" stroke-width="2"/>
<line x1="43.2034" y1="13.8554" x2="43.2034" y2="4.93974" stroke="black" stroke-width="2"/>
<line x1="43.2034" y1="13.8554" x2="43.2034" y2="4.93974" stroke="black" stroke-width="2"/>
<line x1="43.2034" y1="13.8554" x2="43.2034" y2="4.93974" stroke="black" stroke-width="2"/>
<line x1="39.9485" y1="14.0964" x2="39.9485" y2="5.18071" stroke="black" stroke-width="2"/>
<line x1="39.9485" y1="14.0964" x2="39.9485" y2="5.18071" stroke="black" stroke-width="2"/>
<line x1="39.9485" y1="14.0964" x2="39.9485" y2="5.18071" stroke="black" stroke-width="2"/>
<line x1="31.2691" y1="13.8554" x2="31.2691" y2="4.93974" stroke="black" stroke-width="2"/>
<line x1="31.2691" y1="13.8554" x2="31.2691" y2="4.93974" stroke="black" stroke-width="2"/>
<line x1="31.2691" y1="13.8554" x2="31.2691" y2="4.93974" stroke="black" stroke-width="2"/>
<line y1="-0.5" x2="16.7928" y2="-0.5" transform="matrix(0.888346 -0.459175 0.54787 0.836564 34.7102 17.7108)" stroke="#808080"/>
<line y1="-0.5" x2="16.7024" y2="-0.5" transform="matrix(0.905996 0.423286 0.563525 -0.826099 34.1677 2.53009)" stroke="#808080"/>
<line y1="-0.5" x2="14.0643" y2="-0.5" transform="matrix(-0.867833 0.496856 -0.587179 -0.809457 34.1677 2.53009)" stroke="#808080"/>
<line y1="-0.5" x2="14.4297" y2="-0.5" transform="matrix(-0.827073 -0.562094 -0.704365 0.709838 34.1677 17.7108)" stroke="#808080"/>
<line y1="-0.5" x2="12.2086" y2="-0.5" transform="matrix(-0.999974 -0.00715851 0.00906982 -0.999959 33.8979 9.44128)" stroke="#808080"/>
<line x1="49.3569" y1="10.0181" x2="40.6774" y2="10.0181" stroke="#808080"/>
<line y1="-1" x2="16" y2="-1" transform="matrix(0 -1 -1 0 32.8666 17.6)" stroke="#9F9F9F" stroke-width="2"/>
<line y1="-1" x2="17.0877" y2="-1" transform="matrix(-1 0 0 1 114.865 5.42163)" stroke="black" stroke-width="2"/>
<line y1="-1" x2="17.0877" y2="-1" transform="matrix(-1 0 0 1 114.865 5.42163)" stroke="black" stroke-width="2"/>
<line y1="-1" x2="17.0877" y2="-1" transform="matrix(-1 0 0 1 114.865 5.42163)" stroke="black" stroke-width="2"/>
<line y1="-1" x2="17.0877" y2="-1" transform="matrix(-1 0 0 1 114.865 14.3373)" stroke="black" stroke-width="2"/>
<line y1="-1" x2="17.0877" y2="-1" transform="matrix(-1 0 0 1 114.865 14.3373)" stroke="black" stroke-width="2"/>
<line y1="-1" x2="17.0877" y2="-1" transform="matrix(-1 0 0 1 114.865 14.3373)" stroke="black" stroke-width="2"/>
<line y1="-1" x2="8.91566" y2="-1" transform="matrix(-4.44491e-09 -1 -1 3.50817e-09 113.509 14.0964)" stroke="black" stroke-width="2"/>
<line y1="-1" x2="8.91566" y2="-1" transform="matrix(-4.44491e-09 -1 -1 3.50817e-09 113.509 14.0964)" stroke="black" stroke-width="2"/>
<line y1="-1" x2="8.91566" y2="-1" transform="matrix(-4.44491e-09 -1 -1 3.50817e-09 113.509 14.0964)" stroke="black" stroke-width="2"/>
<line y1="-1" x2="8.91566" y2="-1" transform="matrix(-4.44491e-09 -1 -1 3.50817e-09 98.3196 13.8554)" stroke="black" stroke-width="2"/>
<line y1="-1" x2="8.91566" y2="-1" transform="matrix(-4.44491e-09 -1 -1 3.50817e-09 98.3196 13.8554)" stroke="black" stroke-width="2"/>
<line y1="-1" x2="8.91566" y2="-1" transform="matrix(-4.44491e-09 -1 -1 3.50817e-09 98.3196 13.8554)" stroke="black" stroke-width="2"/>
<line y1="-1" x2="8.91566" y2="-1" transform="matrix(-4.44491e-09 -1 -1 3.50817e-09 101.574 14.0964)" stroke="black" stroke-width="2"/>
<line y1="-1" x2="8.91566" y2="-1" transform="matrix(-4.44491e-09 -1 -1 3.50817e-09 101.574 14.0964)" stroke="black" stroke-width="2"/>
<line y1="-1" x2="8.91566" y2="-1" transform="matrix(-4.44491e-09 -1 -1 3.50817e-09 101.574 14.0964)" stroke="black" stroke-width="2"/>
<line y1="-1" x2="8.91566" y2="-1" transform="matrix(-4.44491e-09 -1 -1 3.50817e-09 110.254 13.8554)" stroke="black" stroke-width="2"/>
<line y1="-1" x2="8.91566" y2="-1" transform="matrix(-4.44491e-09 -1 -1 3.50817e-09 110.254 13.8554)" stroke="black" stroke-width="2"/>
<line y1="-1" x2="8.91566" y2="-1" transform="matrix(-4.44491e-09 -1 -1 3.50817e-09 110.254 13.8554)" stroke="black" stroke-width="2"/>
<line y1="-0.5" x2="16.7928" y2="-0.5" transform="matrix(-0.888346 -0.459175 -0.54787 0.836564 107.813 17.7108)" stroke="#808080"/>
<line y1="-0.5" x2="16.7024" y2="-0.5" transform="matrix(-0.905996 0.423286 -0.563525 -0.826099 108.355 2.53015)" stroke="#808080"/>
<line y1="-0.5" x2="14.0643" y2="-0.5" transform="matrix(0.867833 0.496856 0.587179 -0.809457 108.355 2.53009)" stroke="#808080"/>
<line y1="-0.5" x2="14.4297" y2="-0.5" transform="matrix(0.827073 -0.562094 0.704365 0.709838 108.355 17.7108)" stroke="#808080"/>
<line y1="-0.5" x2="12.2086" y2="-0.5" transform="matrix(0.999974 -0.00715851 -0.00906982 -0.999959 108.625 9.44128)" stroke="#808080"/>
<line y1="-0.5" x2="8.67947" y2="-0.5" transform="matrix(1 -4.17433e-07 -5.28895e-07 -1 93.1661 9.51807)" stroke="#808080"/>
<line x1="108.233" y1="17.6" x2="108.233" y2="1.59998" stroke="#9F9F9F" stroke-width="2"/>
<defs>
<linearGradient id="paint0_linear_46_2" x1="74.4459" y1="0.843374" x2="74.4459" y2="19.0361" gradientUnits="userSpaceOnUse">
<stop stop-color="#F2F2F2"/>
<stop offset="0.125" stop-color="#EBEBEB"/>
<stop offset="0.76" stop-color="#E7E7E7"/>
<stop offset="0.95" stop-color="#818181"/>
<stop offset="1" stop-color="#737373"/>
</linearGradient>
</defs>
</svg>
